<mxfile host="app.diagrams.net" modified="2023-12-19T19:46:23.554Z" agent="Mozilla/5.0 (Windows NT 10.0; Win64; x64) AppleWebKit/537.36 (KHTML, like Gecko) Chrome/120.0.0.0 Safari/537.36" version="22.1.11" etag="Hy6cWm6pCouK7iiyIv7K" type="github">
  <diagram name="Sayfa -1" id="Ltb3hZQmNxOiBSljdmGo">
    <mxGraphModel>
      <root>
        <mxCell id="0" />
        <mxCell id="1" parent="0" />
      </root>
    </mxGraphModel>
  </diagram>
</mxfile>
